Cast

Ving Rhames ... Renzo Wes
Pam Grier ... James Womack
Sean Derry ... Train



Screenshot

 
http://www.shotpix.com/images/48261529864146860109.jpg


Rip Information

General
Format                                   : Matroska
Format version                           : Version 4 / Version 2
File size                                : 293 MiB
Duration                                 : 1h 21mn
Overall bit rate                         : 499 Kbps
Movie name                               : Mafia 2011 {BRRip} {x264} {Eng} {rdx004} {DMRG}
Encoded date                             : UTC 2013-03-05 03:29:04


Video

ID                                       : 1
Format                                   : AVC
Format/Info                              : Advanced Video Codec
Format profile                           : High@L2.1
Format settings, CABAC                   : Yes
Format settings, ReFrames                : 4 frames
Codec ID                                 : V_MPEG4/ISO/AVC
Duration                                 : 1h 21mn
Bit rate                                 : 442 Kbps
Width                                    : 640 pixels
Height                                   : 272 pixels
Display aspect ratio                     : 16:9
Original display aspect ratio            : 2.35:1
Frame rate mode                          : Constant
Frame rate                               : 23.976 fps
Color space                              : YUV
Chroma subsampling                       : 4:2:0
Bit depth                                : 8 bits
Scan type                                : Progressive
Bits/(Pixel*Frame)                       : 0.106
Stream size                              : 249 MiB (85%)
Writing library                          : x264 core 112
Language                                 : English
Default                                  : Yes
Forced                                   : No
Color primaries                          : BT.709
Transfer characteristics                 : BT.709
Matrix coefficients                      : BT.709

Audio

ID                                       : 2
Format                                   : MPEG Audio
Format version                           : Version 2
Format profile                           : Layer 3
Codec ID                                 : A_MPEG/L3
Codec ID/Hint                            : MP3
Duration                                 : 1h 21mn
Bit rate mode                            : Constant
Bit rate                                 : 64.0 Kbps
Channel(s)                               : 2 channels
Sampling rate                            : 22.05 KHz
Compression mode                         : Lossy
Stream size                              : 37.5 MiB (13%)
Writing library                          : LAMELAME_MAJOR_VERSI
Language                                 : English
Default                                  : Yes
Forced                                   : No




Subtitle

ID                                       : 3
Format                                   : UTF-8
Codec ID                                 : S_TEXT/UTF8
Codec ID/Info                            : UTF-8 Plain Text
Language                                 : English
Default                                  : No
Forced                                   : No